# xmcd CD database file
#
# Track frame offsets:
#	150
#	20225
#	39415
#
# Disc length: 788 seconds
#
# Revision: 1
# Processed by: cddbd v1.5.1PL2 Copyright (c) Steve Scherf et al.
# Submitted via: CDex 1.50
#
DISCID=1f031203
DTITLE=Kenny Loggins - For The First Time
DYEAR=1996
DGENRE=Slow Rock
TTITLE0=For The First Time
TTITLE1=Return To Pooh Corner
TTITLE2=Forever
EXTD=YEAR: 1996
EXTT0=
EXTT1=
EXTT2=
PLAYORDER=
